<?xml version="1.0" encoding="UTF-8"?>
<svg width="78px" height="78px" viewBox="0 0 78 78" version="1.1" xmlns="http://www.w3.org/2000/svg" xmlns:xlink="http://www.w3.org/1999/xlink">
    <!-- Generator: Sketch 61.2 (89653) - https://sketch.com -->
    <title>Sourcebreaker-logo-09</title>
    <desc>Created with Sketch.</desc>
    <g id="Page-1" stroke="none" stroke-width="1" fill="none" fill-rule="evenodd">
        <g id="Sourcebreaker-logo-09" transform="translate(0.000000, 0.000000)" fill-rule="nonzero">
            <path d="M39,0.469967561 C17.6938621,0.497605799 0.441616479,17.7871423 0.459999686,39.0932901 C0.478412295,60.399438 17.7604912,77.659154 39.0666451,77.6499677 C60.3727989,77.640774 77.64,60.3661558 77.64,39.06 C77.64,28.8166267 73.5674253,18.9935243 66.3195787,11.7550564 C59.0717322,4.51658857 49.2433647,0.456727943 39,0.469967561 Z" id="Path" fill="#FFFFFF"></path>
            <path d="M52.39,61 C49.39,63.2 45.09,64.22 38.76,64.22 C32.43,64.22 28.11,63.22 25.13,61 C21.92,58.63 20.36,54.92 20.36,49.66 C20.36,44.79 22.13,41.04 25.63,38.52 C26.076582,38.198461 26.6607798,38.1395953 27.1625318,38.3655771 C27.6642837,38.591559 28.0073618,39.0680563 28.0625318,39.6155771 C28.1177017,40.163098 27.876582,40.698461 27.43,41.02 C24.78,42.93 23.43,45.83 23.43,49.66 C23.43,56.55 26.03,61.14 38.74,61.14 C51.45,61.14 54.05,56.55 54.05,49.66 C54.05,41.66 45.62,39.01 38.56,38.17 C31.11,37.28 26.48,32.59 26.48,25.92 C26.4936198,20.8260931 29.6556613,16.2712893 34.4234158,14.4778037 C39.1911702,12.6843181 44.5712319,14.02584 47.9387558,17.8478625 C51.3062796,21.669885 51.9596109,27.1760545 49.58,31.68 C49.3209824,32.1658812 48.8224258,32.4766697 48.2721316,32.4952945 C47.7218373,32.5139194 47.2034083,32.2375509 46.9121316,31.7702945 C46.6208549,31.3030382 46.6009824,30.7158812 46.86,30.23 C48.6386382,26.8572977 48.1472439,22.7362417 45.6254286,19.8763252 C43.1036134,17.0164086 39.0764598,16.0131119 35.5076725,17.3556587 C31.9388852,18.6982056 29.571543,22.1070561 29.56,25.92 C29.56,30.98 33.06,34.42 38.93,35.11 C50.67,36.51 57.1400478,41.68 57.1400478,49.66 C57.15,54.89 55.59,58.6 52.39,61 Z" id="Path" fill="#004D75"></path>
        </g>
    </g>
</svg>