<svg xmlns="http://www.w3.org/2000/svg" viewBox="0 0 1067.89 1333.33" shape-rendering="geometricPrecision" text-rendering="geometricPrecision" image-rendering="optimizeQuality" fill-rule="evenodd" clip-rule="evenodd"><path d="M430.19 1003.43c-6.99-8.79-5.53-21.59 3.26-28.59 8.8-6.99 21.6-5.53 28.59 3.26 22.43 28.08 43.9 45.08 63.99 46.56 19 1.4 39.48-11.89 61.83-44.04 6.42-9.23 19.11-11.52 28.35-5.09 9.24 6.42 11.52 19.11 5.1 28.35-31.56 45.4-64.38 63.88-98.15 61.4-32.67-2.4-63.49-24.93-92.97-61.85zm273.66-380.17c23.72 0 42.95 19.23 42.95 42.95 0 23.72-19.23 42.95-42.95 42.95-23.72 0-42.95-19.23-42.95-42.95 0-23.72 19.23-42.95 42.95-42.95zm-354.22 0c23.72 0 42.95 19.23 42.95 42.95 0 23.72-19.23 42.95-42.95 42.95-23.72 0-42.95-19.23-42.95-42.95 0-23.72 19.23-42.95 42.95-42.95zm432.09-88.89c-14.15 2.14-27.24 1.47-40.63-2.13-14.49-3.9-28.62-11.21-44.43-22.13-25.93 41.76-63.08 70.78-103.94 86.46v.08c-25.27 9.7-52.08 14.25-78.62 13.52-26.59-.74-52.84-6.84-76.93-18.43l-.06-.03c-32.87-15.78-61.6-41.72-81.61-78.1-12.96 9.55-26.38 15.41-40.75 18.42-14.52 3.03-29.44 2.97-45.48.77-.31 14.85-.79 28.91-1.27 42.8-3.95 115.63-7.52 219.93 98.22 343.39 3.59 4.2 5.17 9.43 4.84 14.54-1.22 30.17 1.44 57.37 7.63 81.2 6.16 23.73 15.85 44.15 28.66 60.84 5.55 7.22 11.85 13.69 18.73 19.39 26.8 22.19 62.11 32.15 97.78 31.28 36.15-.88 72.44-12.85 100.62-34.49l1.18-.83c7.65-6.01 14.79-12.93 21.24-20.71 13.65-16.49 23.69-36.17 29.25-58.98 5.45-22.37 6.73-47.86 3.1-76.46-.78-6.13 1.28-11.97 5.13-16.22l-.03-.03c105.38-115.81 102.11-222.99 98.53-340.94-.44-14.49-.89-29.14-1.17-43.19zM227.13 686.84c-50.31-1.2-93.31-8.28-127.96-22.09-.41.91-.9 1.79-1.45 2.65-10.72 16.52-15.91 32.74-15.83 48.65.08 15.98 5.51 32.35 16.02 49.05 4.51 7.17 3.99 16.08-.62 22.59-45.1 71-58.51 127.71-42.46 171.11 16 43.27 62.47 75.7 137.06 98.1 7.84 2.33 13.22 8.97 14.33 16.56 6.44 43.09 21.26 76.17 46.05 97.26 24.78 21.08 60.72 31.17 109.59 28.46 6.74-.37 12.89 2.59 16.86 7.43 46.17 56.32 93.13 86.36 141 86.11 48.37-.26 100.07-31.17 155.52-96.78 4.93-5.83 12.43-8.19 19.43-6.83 42.09 8.22 75.72 2 101.88-16.96 27.2-19.7 47.62-53.44 62.19-99.28 2.01-6.34 6.84-11 12.67-13.04 69.89-24.4 112.41-57.75 126.79-100.3 14.49-42.87 1.46-97.36-39.83-163.76-3.97-6.38-3.98-14.1-.7-20.29 7.94-17.71 12.95-36.15 14.12-55.53 1.03-17.1-.89-35.02-6.39-53.91-37.98 14.44-85.66 21.07-141.7 20.97-4.76 83.38-26.35 164.77-103.09 252 2.89 30.01 1.02 57.27-4.94 81.75-7.11 29.17-19.93 54.31-37.37 75.38-8.09 9.77-17.43 18.72-27.75 26.8l-1.35 1.13c-34.96 26.85-79.81 41.7-124.35 42.78-45.03 1.09-90.02-11.81-124.69-40.52-9.1-7.54-17.54-16.22-25.11-26.07-16.05-20.9-28.1-46.19-35.67-75.34-6.66-25.65-9.82-54.3-9.14-85.55-75.99-91.06-98.07-171.55-103.1-252.53zM63.2 645.93C24.73 619.79 2.73 580.39.01 525.49c63.75-12.13 133.85-12.45 208.21-4.88-19.59-6.99-36.56-17.71-50.55-30.86-19.24-18.1-32.76-40.8-39.59-64.76-6.92-24.28-7.02-50.04.69-73.88 5.39-16.68 14.53-32.31 27.72-45.74-34.03-28.17-45.41-64.66-40.57-100.91 3.08-23.1 12.94-45.8 27.79-65.79 14.57-19.62 34.04-36.8 56.62-49.28C239.3 62.33 302.99 56.8 363.91 95.2c23.82-36.54 55.99-63.24 91.45-78.9C480.52 5.19 507.45-.38 534.32.02c27.07.41 53.94 6.85 78.76 19.73 30.61 15.88 58.13 41.42 79.09 77.33 45.06-35.93 100.34-40.04 147.44-23.98 21.26 7.25 40.86 18.64 57.06 33.07 16.54 14.74 29.67 32.7 37.63 52.78 15.86 40.04 11.48 87.56-26.67 133.62 24.68 26.36 36.45 58.41 37.23 90.35.41 16.67-2.18 33.24-7.49 48.83a143.275 143.275 0 01-23.93 43.53c-17.35 21.59-41.33 38.55-70.67 47.18 80.65-9.41 156.58-10.02 225.15 3.03-2.78 56.1-25.69 96.01-65.73 122.12 8.58 26.22 11.65 51.06 10.22 74.75-1.28 21.26-6.18 41.54-13.96 61.01 43.61 73.38 56.12 136.33 38.3 189.08-17.94 53.09-65.71 93.76-142.5 122.34-17.11 49.46-41.36 86.84-73.79 110.34-32.91 23.84-73.21 33.11-121.8 25.97-60.98 69.21-120.52 101.93-178.77 102.24-58.71.31-113.95-32.12-166.12-93.13-54.76 1.28-96.78-12.24-127.76-38.59-30.19-25.69-48.93-62.76-57.9-109.52-80.42-26.31-131.69-65.74-151.49-119.29-19.8-53.52-7.11-118.99 40.43-197.25-10.32-19.54-15.65-39.32-15.76-59.35-.13-23.71 7.07-47.15 21.93-70.28zM802.94 488c34.24-1.28 61.33-16.47 78.8-38.2 7.5-9.33 13.27-19.91 17.08-31.11 3.83-11.24 5.7-23.06 5.41-34.81-.65-26.78-12.53-53.86-37.96-74.3-8.75-7.04-10.14-19.84-3.11-28.59.57-.7 1.17-1.36 1.81-1.97 37.31-37.19 43.4-74.82 31.41-105.1-5.55-14.03-14.91-26.75-26.79-37.33-12.22-10.89-27.01-19.48-43.05-24.95-40.69-13.89-89.51-7.61-124.94 32.34-7.43 8.4-20.27 9.19-28.67 1.75a20.35 20.35 0 01-5.13-7.02l-.04.02c-17.83-40.35-43.89-67.55-73.31-82.82a135.597 135.597 0 00-60.61-15.27c-20.92-.31-42.09 4.11-62.07 12.94-33.57 14.83-63.58 42.13-83.43 80.38-5.15 9.98-17.41 13.91-27.39 8.76-1.2-.63-2.32-1.35-3.34-2.16-51.31-40.8-106.48-38.26-147.68-15.5-17.46 9.65-32.43 22.83-43.56 37.82-10.86 14.61-18.01 30.79-20.15 46.83-3.73 27.98 8.49 56.65 44.23 76.56 9.8 5.45 13.33 17.83 7.88 27.63a20.262 20.262 0 01-7.02 7.38c-17.53 11-28.57 25.93-33.84 42.25-5.15 15.94-4.99 33.5-.2 50.31 4.88 17.14 14.55 33.36 28.28 46.28 15.51 14.6 36.31 25.04 61.42 27.93 2.27-.26 4.61-.14 6.96.4l1.69.39c.93.14 1.83.35 2.7.61 18.6 4.09 34.4 5.63 48.17 2.75 13.94-2.91 27.02-10.81 40.61-25.92l.05.04c2.08-2.32 4.73-4.19 7.84-5.38 10.47-4 22.2 1.24 26.2 11.7 15.35 39.97 42.1 67.29 73.62 82.45 18.83 9.09 39.47 13.87 60.44 14.44 21.05.58 42.54-3.11 63.02-10.97l.02.07c38.24-14.69 72.57-44.12 93.5-87.59.67-1.29 1.45-2.56 2.39-3.74 6.95-8.8 19.71-10.29 28.51-3.34 19.68 15.55 34.8 25.11 48.94 28.93 12.59 3.39 25.67 2.16 42.45-3.4 2.39-.98 5.01-1.53 7.76-1.53l1.12.03z" fill-rule="nonzero"/></svg>